<svg xmlns="http://www.w3.org/2000/svg" xmlns:xlink="http://www.w3.org/1999/xlink" width="146.43" height="35.42" viewBox="0 0 146.43 35.42"><defs><style>.cls-1{fill:#333;stroke:#333;stroke-miterlimit:10;}.cls-2{fill:url(#linear-gradient);}.cls-3{fill:none;stroke:#fff;stroke-linecap:round;stroke-linejoin:round;stroke-width:1.2px;}</style><linearGradient id="linear-gradient" x1="5.59" y1="30.58" x2="28.08" y2="8.09" gradientUnits="userSpaceOnUse"><stop offset="0" stop-color="#096" stop-opacity="0.9"/><stop offset="1" stop-color="#2fbc8a"/></linearGradient></defs><g id="Layer_2" data-name="Layer 2"><g id="Layer_1-2" data-name="Layer 1"><g id="Layer_2-2" data-name="Layer 2"><g id="Layer_1-2-2" data-name="Layer 1-2"><path class="cls-1" d="M40.22,26.93a1.34,1.34,0,0,1-.41-1v-19a1.45,1.45,0,0,1,.41-1,1.34,1.34,0,0,1,1-.42h7.39A7.83,7.83,0,0,1,53.8,7a5.1,5.1,0,0,1,1.83,4.13,5.15,5.15,0,0,1-.86,3A5.28,5.28,0,0,1,52.56,16a7,7,0,0,1,3.09,1.91,4.76,4.76,0,0,1,1.2,3.32,5.52,5.52,0,0,1-1.94,4.51c-1.28,1.07-3.31,1.61-6.11,1.61H41.22A1.35,1.35,0,0,1,40.22,26.93Zm7.64-12A6.2,6.2,0,0,0,51.78,14a3.19,3.19,0,0,0,1.13-2.63A2.77,2.77,0,0,0,51.7,9a5.59,5.59,0,0,0-3.31-.87H42.66v6.79Zm.66,9.75a7.45,7.45,0,0,0,4.31-.94,3.13,3.13,0,0,0,1.27-2.66c0-2.39-1.85-3.59-5.55-3.58H42.66v7.18Z"/><path class="cls-1" d="M63.2,26.84a5.16,5.16,0,0,1-1.94-2.22,7.09,7.09,0,0,1-.68-3.11V12.62a1.32,1.32,0,0,1,.43-1,1.44,1.44,0,0,1,1-.4,1.41,1.41,0,0,1,1,.4,1.36,1.36,0,0,1,.4,1V21.2c0,2.55,1.15,3.83,3.45,3.82a5,5,0,0,0,2.8-.81A10,10,0,0,0,72,22v-9.4a1.38,1.38,0,0,1,.42-1,1.44,1.44,0,0,1,1-.4,1.38,1.38,0,0,1,1.41,1.4V26.06a1.43,1.43,0,0,1-.41,1,1.31,1.31,0,0,1-1,.42,1.4,1.4,0,0,1-1-.42,1.42,1.42,0,0,1-.42-1V24.77a10.42,10.42,0,0,1-2.57,2.1,6.5,6.5,0,0,1-3.26.79A5.45,5.45,0,0,1,63.2,26.84Z"/><path class="cls-1" d="M82.75,26.67a7.5,7.5,0,0,1-2.82-2.88,8.92,8.92,0,0,1-1.08-4.44,8.91,8.91,0,0,1,1.08-4.43,7.43,7.43,0,0,1,6.5-3.87,7.18,7.18,0,0,1,5.36,2.38V5.75a1.38,1.38,0,0,1,.42-1,1.45,1.45,0,0,1,1-.41,1.3,1.3,0,0,1,1,.43,1.35,1.35,0,0,1,.41,1V26.09a1.3,1.3,0,0,1-.41,1,1.34,1.34,0,0,1-1,.41,1.45,1.45,0,0,1-1-.41,1.34,1.34,0,0,1-.42-1v-.82a7.19,7.19,0,0,1-5.36,2.39A7.33,7.33,0,0,1,82.75,26.67Zm6.8-2.32a7.67,7.67,0,0,0,2.24-1.71V16.06a7.67,7.67,0,0,0-2.24-1.71,6.07,6.07,0,0,0-2.71-.64,5,5,0,0,0-3.73,1.47,5.83,5.83,0,0,0-1.41,4.17,5.78,5.78,0,0,0,1.41,4.17A4.93,4.93,0,0,0,86.84,25,5.81,5.81,0,0,0,89.55,24.35Z"/><path class="cls-1" d="M103.38,34.39a12,12,0,0,1-3-1.16,1.19,1.19,0,0,1-.56-1.09,1.31,1.31,0,0,1,.36-.9,1.2,1.2,0,0,1,.89-.39,1.58,1.58,0,0,1,.57.13,11.33,11.33,0,0,0,5.17,1.19c3.19,0,4.79-1.71,4.79-5.11V25a7.08,7.08,0,0,1-5.36,2.38,7.6,7.6,0,0,1-3.58-.92,7.46,7.46,0,0,1-2.87-2.76,8.4,8.4,0,0,1-1.13-4.46,8.37,8.37,0,0,1,1.13-4.47,7.4,7.4,0,0,1,6.41-3.69,7.08,7.08,0,0,1,5.36,2.38v-.78a1.45,1.45,0,0,1,.41-1,1.34,1.34,0,0,1,1-.42,1.43,1.43,0,0,1,1.44,1.42v14a8.73,8.73,0,0,1-1.91,6.08,6.93,6.93,0,0,1-5.45,2.13A14.25,14.25,0,0,1,103.38,34.39Zm6-10.28a9.07,9.07,0,0,0,2.16-1.69V16a9.07,9.07,0,0,0-2.16-1.69,5.24,5.24,0,0,0-2.6-.63A5.31,5.31,0,0,0,103,15.08a5.47,5.47,0,0,0-1.49,4.12A5.46,5.46,0,0,0,103,23.32a5.3,5.3,0,0,0,3.84,1.42,5.23,5.23,0,0,0,2.57-.63Z"/><path class="cls-1" d="M120.54,25.48a8.37,8.37,0,0,1-2.15-6.13,10.32,10.32,0,0,1,.82-4.1,7,7,0,0,1,2.5-3,8,8,0,0,1,8.18-.08A6.85,6.85,0,0,1,132.46,15a8.92,8.92,0,0,1,.88,3.93,1.35,1.35,0,0,1-1.3,1.41H121.27a5.13,5.13,0,0,0,1.63,3.42A5.64,5.64,0,0,0,126.76,25a9.32,9.32,0,0,0,2.3-.25A9.42,9.42,0,0,0,131,24a1.38,1.38,0,0,1,.56-.12,1.29,1.29,0,0,1,.88.34,1.14,1.14,0,0,1,.38.88,1.37,1.37,0,0,1-.82,1.16,9.77,9.77,0,0,1-5.48,1.38A8,8,0,0,1,120.54,25.48Zm10-7.44a4.92,4.92,0,0,0-.8-2.57A4.34,4.34,0,0,0,128,14a4.77,4.77,0,0,0-4.2,0,4.21,4.21,0,0,0-1.72,1.52,5.2,5.2,0,0,0-.79,2.57Z"/><path class="cls-1" d="M138,23.52V13.81h-2.23a.56.56,0,0,1-.42-.18.55.55,0,0,1-.17-.42.66.66,0,0,1,.28-.53l4.26-4.17a.82.82,0,0,1,.53-.28.57.57,0,0,1,.43.19.66.66,0,0,1,.17.44v2.5h3.54a1.2,1.2,0,0,1,.88.35,1.18,1.18,0,0,1,.34.87,1.2,1.2,0,0,1-1.22,1.23h-3.54v9.46c0,.81.19,1.33.58,1.55a2.85,2.85,0,0,0,1.46.33,4,4,0,0,0,1.25-.19l.27-.06h.36a1.07,1.07,0,0,1,.78.33,1,1,0,0,1,.34.79,1.18,1.18,0,0,1-.72,1.1,6,6,0,0,1-2.6.57Q138,27.66,138,23.52Z"/><g id="Icon"><path class="cls-2" d="M.56,15.15A2,2,0,0,0,2,18.54c1,.07,3.34-.44,3.33,1.22V28.6A2.58,2.58,0,0,0,7.9,31.18H24.65a2.57,2.57,0,0,0,2.58-2.58V19.76a1.22,1.22,0,0,1,1.22-1.22h2.11A2,2,0,0,0,32,15.15L17.69.59a2,2,0,0,0-2.83,0h0"/><g id="Cypher"><path id="S" class="cls-3" d="M20.37,13.22h-6a2.53,2.53,0,0,0-2.53,2.53h0a2.53,2.53,0,0,0,2.53,2.53h3.82a2.53,2.53,0,0,1,2.53,2.53h0a2.53,2.53,0,0,1-2.53,2.53h-6"/><line id="l" class="cls-3" x1="16.27" y1="10.87" x2="16.27" y2="25.69"/></g></g></g></g></g></g></svg>