<svg xmlns="http://www.w3.org/2000/svg" width="146.19" height="35.12" viewBox="0 0 146.19 35.12"><defs><style>.cls-1{fill:#fff;stroke-width:0.5px;}.cls-1,.cls-3{stroke:#fff;stroke-linecap:round;stroke-linejoin:round;}.cls-2{fill:#2fbc8a;}.cls-3{fill:none;stroke-width:1.2px;}</style></defs><g id="Layer_2" data-name="Layer 2"><g id="Layer_1-2" data-name="Layer 1"><path class="cls-1" d="M40.23,26.94a1.32,1.32,0,0,1-.41-1v-19a1.41,1.41,0,0,1,.41-1,1.33,1.33,0,0,1,1-.42h7.39A7.82,7.82,0,0,1,53.81,7a5.11,5.11,0,0,1,1.83,4.13,5.14,5.14,0,0,1-.86,3A5.32,5.32,0,0,1,52.57,16a7,7,0,0,1,3.09,1.91,4.74,4.74,0,0,1,1.2,3.32,5.54,5.54,0,0,1-1.94,4.51Q53,27.35,48.81,27.35H41.23A1.32,1.32,0,0,1,40.23,26.94Zm7.64-12A6.2,6.2,0,0,0,51.79,14a3.23,3.23,0,0,0,1.13-2.63A2.78,2.78,0,0,0,51.71,9a5.58,5.58,0,0,0-3.31-.87H42.67v6.79Zm.66,9.75a7.43,7.43,0,0,0,4.31-.94,3.14,3.14,0,0,0,1.27-2.66q0-3.59-5.55-3.58H42.67v7.18Z"/><path class="cls-1" d="M63.21,26.85a5.17,5.17,0,0,1-1.94-2.22,7.12,7.12,0,0,1-.68-3.11V12.63a1.32,1.32,0,0,1,.43-1,1.4,1.4,0,0,1,1-.4,1.39,1.39,0,0,1,1,.4,1.37,1.37,0,0,1,.4,1v8.58q0,3.83,3.45,3.82a5,5,0,0,0,2.8-.81A10.16,10.16,0,0,0,72,22v-9.4a1.35,1.35,0,0,1,.42-1,1.41,1.41,0,0,1,1-.4,1.35,1.35,0,0,1,1,.4,1.38,1.38,0,0,1,.41,1V26.07a1.45,1.45,0,0,1-.41,1,1.33,1.33,0,0,1-1,.42,1.39,1.39,0,0,1-1-.42,1.42,1.42,0,0,1-.42-1V24.78a10.41,10.41,0,0,1-2.57,2.1,6.53,6.53,0,0,1-3.26.79A5.42,5.42,0,0,1,63.21,26.85Z"/><path class="cls-1" d="M82.76,26.68a7.51,7.51,0,0,1-2.82-2.88,8.85,8.85,0,0,1-1.08-4.44,8.78,8.78,0,0,1,1.08-4.43,7.44,7.44,0,0,1,6.5-3.87,7.18,7.18,0,0,1,5.36,2.38V5.76a1.38,1.38,0,0,1,.42-1,1.42,1.42,0,0,1,1-.41,1.3,1.3,0,0,1,1,.43,1.37,1.37,0,0,1,.41,1V26.1a1.32,1.32,0,0,1-.41,1,1.36,1.36,0,0,1-1,.41,1.42,1.42,0,0,1-1-.41,1.33,1.33,0,0,1-.42-1v-.82a7.19,7.19,0,0,1-5.36,2.39A7.34,7.34,0,0,1,82.76,26.68Zm6.8-2.32a7.76,7.76,0,0,0,2.24-1.71V16.07a7.76,7.76,0,0,0-2.24-1.71,6,6,0,0,0-2.71-.64,4.93,4.93,0,0,0-3.73,1.47,5.82,5.82,0,0,0-1.41,4.17,5.78,5.78,0,0,0,1.41,4.17A4.93,4.93,0,0,0,86.85,25,5.91,5.91,0,0,0,89.56,24.36Z"/><path class="cls-1" d="M103.39,34.4a12,12,0,0,1-3-1.16,1.19,1.19,0,0,1-.56-1.09,1.29,1.29,0,0,1,.36-.9,1.17,1.17,0,0,1,.89-.39,1.45,1.45,0,0,1,.57.13,11.42,11.42,0,0,0,5.17,1.19c3.19,0,4.79-1.71,4.79-5.11V25a7.06,7.06,0,0,1-5.36,2.38,7.6,7.6,0,0,1-3.58-.92,7.5,7.5,0,0,1-2.87-2.76,8.37,8.37,0,0,1-1.13-4.46,8.38,8.38,0,0,1,1.13-4.47A7.5,7.5,0,0,1,102.63,12a7.6,7.6,0,0,1,3.58-.92,7.06,7.06,0,0,1,5.36,2.38v-.78a1.42,1.42,0,0,1,.41-1,1.33,1.33,0,0,1,1-.42,1.43,1.43,0,0,1,1.44,1.44v14a8.78,8.78,0,0,1-1.91,6.08,6.94,6.94,0,0,1-5.45,2.13A14.61,14.61,0,0,1,103.39,34.4Zm6-10.28a9.21,9.21,0,0,0,2.16-1.69V16a9.21,9.21,0,0,0-2.16-1.69,5.24,5.24,0,0,0-2.6-.63A5.32,5.32,0,0,0,103,15.09a5.44,5.44,0,0,0-1.49,4.12A5.46,5.46,0,0,0,103,23.33a5.31,5.31,0,0,0,3.84,1.42A5.24,5.24,0,0,0,109.41,24.12Z"/><path class="cls-1" d="M120.55,25.49a8.37,8.37,0,0,1-2.15-6.13,10.08,10.08,0,0,1,.82-4.1,6.94,6.94,0,0,1,2.5-3,8,8,0,0,1,8.18-.08A6.94,6.94,0,0,1,132.47,15a8.92,8.92,0,0,1,.88,3.93,1.36,1.36,0,0,1-1.44,1.41H121.28a5.15,5.15,0,0,0,1.63,3.42A5.65,5.65,0,0,0,126.77,25a9.31,9.31,0,0,0,2.3-.25A10,10,0,0,0,131,24a1.28,1.28,0,0,1,.56-.12,1.25,1.25,0,0,1,.88.34,1.14,1.14,0,0,1,.38.88,1.38,1.38,0,0,1-.82,1.16,9.87,9.87,0,0,1-5.48,1.38A8,8,0,0,1,120.55,25.49Zm10-7.44a5,5,0,0,0-.8-2.57A4.28,4.28,0,0,0,128,14a4.74,4.74,0,0,0-4.2,0,4.17,4.17,0,0,0-1.72,1.52,5.17,5.17,0,0,0-.79,2.57Z"/><path class="cls-1" d="M138.05,23.53V13.82h-2.23a.56.56,0,0,1-.42-.18.54.54,0,0,1-.17-.42.63.63,0,0,1,.28-.53l4.26-4.17a.79.79,0,0,1,.53-.28.56.56,0,0,1,.43.19.64.64,0,0,1,.17.44v2.5h3.54a1.21,1.21,0,0,1,.88.35,1.18,1.18,0,0,1,.34.87,1.21,1.21,0,0,1-.34.87,1.18,1.18,0,0,1-.88.36H140.9v9.46c0,.81.19,1.33.58,1.55a2.89,2.89,0,0,0,1.46.33,4.22,4.22,0,0,0,1.25-.19l.27-.06a1.73,1.73,0,0,1,.36,0,1.1,1.1,0,0,1,.78.33,1,1,0,0,1,.34.79,1.18,1.18,0,0,1-.72,1.1,6.06,6.06,0,0,1-2.6.57Q138,27.67,138.05,23.53Z"/><g id="Icon"><path class="cls-2" d="M.57,15.16A2,2,0,0,0,2,18.55c1,.07,3.34-.44,3.33,1.22,0,3.2,0,6.14,0,8.84a2.58,2.58,0,0,0,2.58,2.58H24.66a2.58,2.58,0,0,0,2.58-2.58V19.77a1.22,1.22,0,0,1,1.23-1.22h2.1A2,2,0,0,0,32,15.16L17.7.6a2,2,0,0,0-2.84,0"/><g id="Cypher"><path id="S" class="cls-3" d="M20.38,13.23h-6a2.53,2.53,0,0,0-2.53,2.53h0a2.53,2.53,0,0,0,2.53,2.53h3.82a2.53,2.53,0,0,1,2.53,2.53h0a2.53,2.53,0,0,1-2.53,2.53h-6"/><line id="l" class="cls-3" x1="16.28" y1="10.88" x2="16.28" y2="25.7"/></g></g></g></g></svg>